<svg xmlns="http://www.w3.org/2000/svg" style="display: none;"><symbol id="gear" viewBox="0 0 54 54"><title>gear</title><path d="M51.22,21h-5.052c-0.812,0-1.481-0.447-1.792-1.197s-0.153-1.54,0.42-2.114l3.572-3.571 c0.525-0.525,0.814-1.224,0.814-1.966c0-0.743-0.289-1.441-0.814-1.967l-4.553-4.553c-1.05-1.05-2.881-1.052-3.933,0l-3.571,3.571 c-0.475,0.475-0.997,0.574-1.352,0.574c-0.5,0-0.997-0.196-1.364-0.539C33.324,8.984,33,8.534,33,7.832V2.78 C33,1.247,31.753,0,30.22,0H23.78C22.247,0,21,1.247,21,2.78v5.052c0,1.218-0.997,1.945-1.961,1.945c-0.354,0-0.876-0.1-1.351-0.574 l-3.571-3.571c-1.052-1.052-2.883-1.05-3.933,0l-4.553,4.553c-0.525,0.525-0.814,1.224-0.814,1.967c0,0.742,0.289,1.44,0.814,1.966 l3.572,3.571c0.573,0.574,0.73,1.364,0.42,2.114S8.644,21,7.832,21H2.78C1.247,21,0,22.247,0,23.78v6.438C0,31.752,1.247,33,2.78,33 h5.052c0.812,0,1.481,0.447,1.792,1.197s0.153,1.54-0.42,2.114l-3.572,3.571c-0.525,0.525-0.814,1.224-0.814,1.966 c0,0.743,0.289,1.441,0.814,1.967l4.553,4.553c1.051,1.051,2.881,1.053,3.933,0l3.571-3.571c0.475-0.475,0.997-0.574,1.352-0.574 c0.963,0,1.96,0.728,1.96,1.945v5.051C21,52.752,22.247,54,23.78,54h6.439c1.533,0,2.78-1.248,2.78-2.781v-5.051 c0-1.218,0.997-1.945,1.96-1.945c0.354,0,0.877,0.1,1.352,0.574l3.571,3.571c1.052,1.052,2.883,1.05,3.933,0l4.553-4.553 c0.525-0.525,0.814-1.224,0.814-1.967c0-0.742-0.289-1.44-0.814-1.966l-3.572-3.571c-0.573-0.574-0.73-1.364-0.42-2.114 S45.356,33,46.168,33h5.052c1.533,0,2.78-1.248,2.78-2.781V23.78C54,22.247,52.753,21,51.22,21z M34,27c0,3.859-3.141,7-7,7 s-7-3.141-7-7s3.141-7,7-7S34,23.141,34,27z"/></symbol><symbol id="chronometer" viewBox="-26 0 512 512"><title>chronometer</title><path d="m229.777344 307.15625c8.28125 0 15.023437-6.742188 15.023437-15.023438 0-8.285156-6.742187-15.027343-15.023437-15.027343-8.285156 0-15.023438 6.742187-15.023438 15.027343 0 8.28125 6.738282 15.023438 15.023438 15.023438zm0 0"/><path d="m244.777344 249.6875c12.777344 4.527344 22.914062 14.667969 27.445312 27.445312h86.550782c-6.890626-59.648437-54.351563-107.105468-113.996094-114zm0 0"/><path d="m272.222656 307.132812c-6.195312 17.46875-22.878906 30.023438-42.445312 30.023438-24.828125 0-45.023438-20.199219-45.023438-45.023438 0-19.570312 12.550782-36.253906 30.023438-42.445312v-86.554688c-64.570313 7.460938-114.871094 62.460938-114.871094 129 0 71.609376 58.261719 129.867188 129.871094 129.867188 66.535156 0 121.535156-50.300781 128.996094-114.867188zm0 0"/><path d="m417.101562 126.019531 21.238282 21.238281 21.210937-21.210937-63.691406-63.691406-21.210937 21.210937 21.238281 21.242188-21.609375 21.609375c-27.328125-23.898438-59.640625-40.390625-94.472656-48.457031v-47.960938h30.035156v-30h-160.128906v30h30.035156v47.960938c-34.832032 8.066406-67.144532 24.558593-94.472656 48.457031l-21.609376-21.609375 21.238282-21.238282-21.210938-21.214843-63.691406 63.691406 21.214844 21.210937 21.238281-21.238281 21.609375 21.609375c-35.023438 40.046875-54.15625 90.800782-54.15625 144.503906 0 58.726563 22.871094 113.941407 64.398438 155.46875 41.53125 41.527344 96.742187 64.398438 155.472656 64.398438 58.726562 0 113.941406-22.871094 155.46875-64.398438 41.527344-41.527343 64.398437-96.742187 64.398437-155.46875 0-53.703124-19.132812-104.457031-54.15625-144.503906zm-187.324218 325.980469c-88.152344 0-159.871094-71.71875-159.871094-159.867188 0-88.152343 71.71875-159.871093 159.871094-159.871093 88.148437 0 159.867187 71.71875 159.867187 159.871093 0 88.148438-71.71875 159.867188-159.867187 159.867188zm0 0"/></symbol><symbol id="play-button" viewBox="0 0 41.999 41.999"><title>play-button</title><path d="M36.068,20.176l-29-20C6.761-0.035,6.363-0.057,6.035,0.114C5.706,0.287,5.5,0.627,5.5,0.999v40 c0,0.372,0.206,0.713,0.535,0.886c0.146,0.076,0.306,0.114,0.465,0.114c0.199,0,0.397-0.06,0.568-0.177l29-20 c0.271-0.187,0.432-0.494,0.432-0.823S36.338,20.363,36.068,20.176z"/></symbol><symbol id="pause-button" viewBox="0 0 45.975 45.975"><title>pause-button</title><path d="M13.987,0c-2.762,0-5,2.239-5,5v35.975c0,2.763,2.238,5,5,5s5-2.238,5-5V5C18.987,2.238,16.75,0,13.987,0z"/><path d="M31.987,0c-2.762,0-5,2.239-5,5v35.975c0,2.762,2.238,5,5,5s5-2.238,5-5V5C36.987,2.239,34.749,0,31.987,0z"/></symbol><symbol id="right-arrow-angle" viewBox="0 0 30.729 30.729"><title>right-arrow-angle</title><path d="M24.813,15.366L10.185,29.997c-0.487,0.487-1.128,0.731-1.768,0.731c-0.641,0-1.279-0.244-1.769-0.731 c-0.977-0.978-0.977-2.561,0-3.536l11.095-11.096L6.649,4.268c-0.976-0.977-0.976-2.56,0-3.536c0.977-0.977,2.56-0.976,3.536,0 L24.813,15.366z"/></symbol><symbol id="left-arrow-angle" viewBox="0 0 30.725 30.725"><title>left-arrow-angle</title><path d="M24.078,26.457c0.977,0.978,0.977,2.559,0,3.536c-0.488,0.488-1.128,0.731-1.77,0.731c-0.639,0-1.278-0.243-1.768-0.731 L5.914,15.362l14.629-14.63c0.977-0.977,2.559-0.976,3.535,0c0.977,0.977,0.977,2.56,0,3.536L12.984,15.362L24.078,26.457z"/></symbol><symbol id="plus" viewBox="0 0 448 448"><title>add</title><path d="m408 184h-136c-4.417969 0-8-3.582031-8-8v-136c0-22.089844-17.910156-40-40-40s-40 17.910156-40 40v136c0 4.417969-3.582031 8-8 8h-136c-22.089844 0-40 17.910156-40 40s17.910156 40 40 40h136c4.417969 0 8 3.582031 8 8v136c0 22.089844 17.910156 40 40 40s40-17.910156 40-40v-136c0-4.417969 3.582031-8 8-8h136c22.089844 0 40-17.910156 40-40s-17.910156-40-40-40zm0 0"/></symbol><symbol id="minus" viewBox="0 0 459.313 459.314"><title>minus-sign-of-a-line-in-horizontal-position</title><path d="M459.313,229.648c0,22.201-17.992,40.199-40.205,40.199H40.181c-11.094,0-21.14-4.498-28.416-11.774 C4.495,250.808,0,240.76,0,229.66c-0.006-22.204,17.992-40.199,40.202-40.193h378.936 C441.333,189.472,459.308,207.456,459.313,229.648z"/></symbol></svg>